<svg width="139" height="56" viewBox="0 0 139 56" fill="none" xmlns="http://www.w3.org/2000/svg">
<g clip-path="url(#clip0_714_987)">
<path d="M139 0H0V56H139V0Z" fill="#EC1D24"/>
<path d="M117.629 13.0502V4.47875H93.8019L89.8834 33.1141L86.0058 4.47889H77.4133L78.3759 12.1198C77.3834 10.1623 73.8654 4.47889 66.1236 4.47889C66.0725 4.47555 57.5193 4.47889 57.5193 4.47889L57.4864 46.2172L51.2235 4.47889L39.9701 4.47235L33.4911 47.7189L33.4944 4.47861H22.7243L18.8416 28.7703L15.0597 4.47889H4.28607V51.4951H12.7701V28.8334L16.6293 51.4945H21.1397L24.9447 28.8334V51.4945H41.3004L42.2928 44.2599H48.8778L49.8669 51.4945L65.9244 51.5044H65.9374V51.4945H65.9474H65.9575V36.233L67.926 35.9459L72.0013 51.5044H72.0113H80.2971H80.3068L80.3035 51.4945H80.3182H80.3282L74.9802 33.2593C77.6904 31.2526 80.7505 26.1566 79.9361 21.2815V21.2783C79.9459 21.3443 84.984 51.5246 84.984 51.5246L94.8621 51.4945L101.612 8.87821V51.4946H117.63V43.0387H110.026V32.2559H117.63V23.6713H110.026V13.0502H117.629ZM43.2923 36.8043L45.6216 16.704L48.0402 36.8043H43.2923ZM67.9535 27.5231C67.3006 27.84 66.6198 27.9985 65.957 27.9985V12.8753C65.9686 12.8753 65.9819 12.8722 65.9983 12.8722C66.6627 12.8689 71.6166 13.0734 71.6166 20.3543C71.6166 24.163 69.9317 26.5627 67.9535 27.5231ZM134.724 43.0322V51.488H119.098V4.47235H127.511V43.0322H134.724Z" fill="white"/>
</g>
<defs>
<clipPath id="clip0_714_987">
<rect width="139" height="56" fill="white"/>
</clipPath>
</defs>
</svg>
